<svg width="228" height="206" viewBox="0 0 228 206" fill="none" xmlns="http://www.w3.org/2000/svg">
<path d="M116.2 135.6C116 135.6 100.1 138.2 89.2 135.9L88.1 135.6C87.6 135.5 87 135.8 86.9 136.3C86.8 136.8 87.1 137.4 87.6 137.5C88 137.6 88.4 137.7 88.8 137.8L116.2 144.1C116.3 144.1 116.3 144.1 116.4 144.1C116.6 144.1 116.8 144 117 143.9C117.2 143.7 117.4 143.4 117.4 143.1V136.6C117.4 136.3 117.3 136 117 135.8C116.8 135.6 116.5 135.5 116.2 135.6ZM115.3 141.9L102 138.8C107.8 138.7 113.1 138 115.3 137.7V141.9Z" fill="black"/>
<path d="M73.0998 92.9C73.2998 92.9 73.4998 92.8 73.6998 92.7C95.2998 76.9 110.8 90.1 111.4 90.7C111.8 91.1 112.4 91 112.8 90.6C113.2 90.2 113.1 89.6 112.7 89.2C112.5 89 108.3 85.4 101.2 83.8C94.6998 82.3 84.3998 82.4 72.3998 91.1C71.9998 91.4 71.8998 92.1 72.1998 92.5C72.3998 92.7 72.7998 92.9 73.0998 92.9Z" fill="black"/>
<path d="M83.3996 99.4994C83.3996 104.599 87.4996 108.699 92.5996 108.699C97.6996 108.699 101.8 104.599 101.8 99.4994C101.8 96.6994 100.5 94.1994 98.5996 92.4994C106.3 93.5994 111.1 97.5994 111.5 97.8994C111.9 98.2994 112.5 98.1994 112.9 97.7994C113.3 97.3994 113.2 96.7994 112.8 96.3994C112.6 96.1994 108.4 92.5994 101.3 90.9994C99.0996 90.4994 96.4996 90.1994 93.5996 90.2994C93.2996 90.2994 92.9996 90.2994 92.6996 90.2994C91.6996 90.2994 90.7996 90.3994 89.9996 90.6994C84.8996 91.4994 78.9996 93.6994 72.6996 98.3994C72.2996 98.6994 72.1996 99.3994 72.4996 99.7994C72.6996 100.099 72.9996 100.199 73.2996 100.199C73.4996 100.199 73.6996 100.099 73.8996 99.9994C77.9996 96.9994 81.9996 94.9994 85.5996 93.7994C84.0996 95.3994 83.3996 97.2994 83.3996 99.4994ZM99.7996 99.4994C99.7996 103.499 96.5996 106.699 92.5996 106.699C88.5996 106.699 85.3996 103.499 85.3996 99.4994C85.3996 96.1994 87.6996 93.3994 90.7996 92.4994C91.4996 92.3994 92.2996 92.2994 92.9996 92.2994C96.6996 92.4994 99.7996 95.5994 99.7996 99.4994Z" fill="black"/>
<path d="M113.6 121C110.3 121 107.7 122.9 107.7 125.3C107.7 127.7 110.3 129.6 113.6 129.6C116.9 129.6 119.5 127.7 119.5 125.3C119.5 122.9 117 121 113.6 121ZM113.6 127.7C111.5 127.7 109.7 126.6 109.7 125.4C109.7 124.2 111.5 123.1 113.6 123.1C115.7 123.1 117.5 124.2 117.5 125.4C117.5 126.6 115.7 127.7 113.6 127.7Z" fill="black"/>
<path d="M93.8004 121.2C93.8004 116.4 89.9004 112.5 85.1004 112.5C80.3004 112.5 76.4004 116.4 76.4004 121.2C76.4004 126 80.3004 129.9 85.1004 129.9C89.9004 129.9 93.8004 126 93.8004 121.2ZM85.1004 127.9C81.4004 127.9 78.4004 124.9 78.4004 121.2C78.4004 117.5 81.4004 114.5 85.1004 114.5C88.8004 114.5 91.8004 117.5 91.8004 121.2C91.8004 124.9 88.8004 127.9 85.1004 127.9Z" fill="black"/>
<path d="M156.2 135.599L155.1 135.899C144.2 138.199 128.2 135.699 128.1 135.599C127.8 135.599 127.5 135.599 127.3 135.799C127.1 135.999 126.9 136.299 126.9 136.599V143.099C126.9 143.399 127 143.699 127.3 143.899C127.5 143.999 127.7 144.099 127.9 144.099C128 144.099 128 144.099 128.1 144.099L155.5 137.799C155.9 137.699 156.3 137.599 156.7 137.499C157.2 137.399 157.6 136.799 157.4 136.299C157.2 135.799 156.8 135.499 156.2 135.599ZM128.9 141.899V137.799C131.2 138.099 136.4 138.799 142.2 138.899L128.9 141.899Z" fill="black"/>
<path d="M154.5 90.6998C153.6 90.3998 152.7 90.2998 151.7 90.2998C151.3 90.2998 151 90.2998 150.7 90.3998C139.1 89.9998 131.7 96.3998 131.6 96.4998C131.2 96.8998 131.1 97.4998 131.5 97.8998C131.9 98.2998 132.5 98.3998 132.9 97.9998C133.3 97.6998 138 93.5998 145.8 92.5998C143.8 94.2998 142.6 96.7998 142.6 99.5998C142.6 104.7 146.7 108.8 151.8 108.8C156.9 108.8 161 104.7 161 99.5998C161 97.3998 160.3 95.4998 159 93.8998C162.6 95.0998 166.6 96.9998 170.7 100.1C170.9 100.2 171.1 100.3 171.3 100.3C171.6 100.3 171.9 100.2 172.1 99.8998C172.4 99.4998 172.3 98.7998 171.9 98.4998C165.5 93.7998 159.7 91.4998 154.5 90.6998ZM158.9 99.4998C158.9 103.5 155.7 106.7 151.7 106.7C147.7 106.7 144.5 103.5 144.5 99.4998C144.5 95.5998 147.5 92.4998 151.3 92.2998C152 92.2998 152.7 92.3998 153.5 92.4998C156.6 93.2998 158.9 96.0998 158.9 99.4998Z" fill="black"/>
<path d="M131.6 89.0994C131.2 89.4994 131.1 90.0994 131.5 90.4994C131.9 90.8994 132.5 90.9994 132.9 90.5994C133.6 89.9994 149.1 76.7994 170.6 92.5994C170.8 92.6994 171 92.7994 171.2 92.7994C171.5 92.7994 171.8 92.6994 172 92.3994C172.3 91.9994 172.2 91.2994 171.8 90.9994C148.9 74.2994 131.7 88.9994 131.6 89.0994Z" fill="black"/>
<path d="M136.5 125.3C136.5 122.9 133.9 121 130.6 121C127.3 121 124.7 122.9 124.7 125.3C124.7 127.7 127.3 129.6 130.6 129.6C133.9 129.7 136.5 127.8 136.5 125.3ZM126.7 125.3C126.7 124.1 128.5 123 130.6 123C132.7 123 134.5 124.1 134.5 125.3C134.5 126.5 132.7 127.6 130.6 127.6C128.5 127.7 126.7 126.6 126.7 125.3Z" fill="black"/>
<path d="M159.2 112.5C154.4 112.5 150.5 116.4 150.5 121.2C150.5 126 154.4 129.9 159.2 129.9C164 129.9 167.9 126 167.9 121.2C167.9 116.4 164 112.5 159.2 112.5ZM159.2 127.9C155.5 127.9 152.5 124.9 152.5 121.2C152.5 117.5 155.5 114.5 159.2 114.5C162.9 114.5 165.9 117.5 165.9 121.2C165.9 124.9 162.9 127.9 159.2 127.9Z" fill="black"/>
<path d="M220.1 38.4995C218.8 36.2995 212.8 27.1995 199.5 18.3995C174.5 1.89953 143.6 -0.300471 122.1 0.699529C79.5 2.79953 58.4 27.2995 48.2 47.5995C45.6 52.6995 43.6 57.6995 42.1 62.4995C40.6 66.9995 39.3 71.7995 38.3 76.8995C36.6 85.2995 36.3 90.8995 36.3 91.1995C35.6 99.1995 35.1 106.5 34.7 113.3C27.1 112.9 20.2 112 17.5 104.4C13.5 93.4995 18.8 86.6995 24.4 79.5995C29.5 73.0995 34.7 66.4995 33 56.3995C31 48.8995 26.6 43.0995 21.2 41.0995C17.2 39.5995 12.9 39.7995 8.99999 41.5995C5.09999 43.3995 2.09999 46.7995 0.799994 50.7995C-1.40001 57.4995 2.29999 64.7995 9.19999 67.0995C11.9 67.9995 14.8 67.8995 17.4 66.5995C20 65.3995 21.9 63.2995 22.7 60.5995C23.4 58.3995 23.2 56.0995 22.2 53.9995C21.1 51.9995 19.3 50.3995 17.1 49.6995C13.3 48.3995 9.19999 50.3995 7.99999 54.0995C7.79999 54.5995 8.09999 55.1995 8.59999 55.3995C9.09999 55.5995 9.69999 55.2995 9.89999 54.7995C10.8 52.1995 13.7 50.7995 16.5 51.6995C18.2 52.2995 19.6 53.4995 20.5 55.0995C21.3 56.6995 21.5 58.4995 20.9 60.0995C20 62.2995 18.5 63.9995 16.4 64.9995C14.3 65.9995 12 66.0995 9.69999 65.3995C3.89999 63.3995 0.599994 57.2995 2.49999 51.5995C3.69999 48.0995 6.29999 45.1995 9.69999 43.5995C13.1 41.9995 16.9 41.7995 20.4 43.0995C25.2 44.8995 29.1 50.0995 30.9 56.8995C32.5 65.9995 27.7 72.0995 22.7 78.4995C17 85.6995 11.1 93.1995 15.5 105.2C18.7 113.9 26.5 115 34.5 115.4C31.3 168.8 36.1 182.1 40.9 187.3C41.8 188.3 42.8 189 43.9 189.6C41.2 191 39.4 193.8 39.4 197.1C39.4 201.8 43.2 205.6 47.9 205.6C52.6 205.6 56.4 201.8 56.4 197.1C56.4 193.5 54.1 190.4 50.9 189.2C52.3 187.6 53.3 184.5 53.9 180.2C55.1 180.6 56.4 181 57.7 181.4C59.4 181.8 61.1 182.1 62.7 182.3C62.9 185.7 65.2 188.5 68.3 189.4C69.2 189.7 70.2 189.9 71.1 189.9C72 189.9 73 189.7 73.9 189.4L75.8 188.7C88.1 199.2 103.7 204.6 122.1 204.6C152.2 204.6 175.8 188.4 189.1 158.8C189.4 175.5 190.2 186.2 193.5 189.5C190.6 190.8 188.6 193.8 188.6 197.2C188.6 201.9 192.4 205.7 197.1 205.7C201.8 205.7 205.6 201.9 205.6 197.2C205.6 193.8 203.6 190.9 200.7 189.5C201.6 189 202.5 188.3 203.3 187.4C208.7 181.5 214.2 165.2 208 91.3995C206.8 77.0995 203.6 64.3995 198.6 53.6995C198.7 53.5995 198.7 53.4995 198.8 53.3995C201.7 47.6995 208.9 48.0995 211.2 48.2995C211.9 52.2995 215.3 55.3995 219.5 55.3995C224.2 55.3995 228 51.5995 228 46.8995C227.9 42.3995 224.5 38.7995 220.1 38.4995ZM116.7 30.7995C176.6 30.7995 194.9 51.5995 196.3 53.3995C199.2 59.2995 201.4 65.7995 203.1 72.9995L183.3 51.9995C183.1 51.7995 182.7 51.5995 182.4 51.6995L160 55.9995L145 40.8995C144.7 40.5995 144.3 40.4995 143.9 40.6995L123.2 48.8995L102.5 40.6995C102.1 40.5995 101.7 40.5995 101.4 40.8995L86.3 55.9995L63.9 51.5995C63.6 51.4995 63.2 51.5995 63 51.8995L40.6 75.5995C42 69.1995 44.2 61.4995 47.7 53.4995C47.7 53.4995 47.7 53.4995 47.8 53.3995C47.9 53.1995 62.8 30.7995 116.7 30.7995ZM122.1 61.2995C67.5 61.2995 45.1 80.7995 38.6 88.0995C38.9 84.9995 39.4 81.9995 39.9 79.0995C40 78.9995 40.1 78.9995 40.2 78.8995L64 53.6995L86.5 57.9995C86.8 58.0995 87.2 57.9995 87.4 57.6995L102.4 42.6995L122.9 50.7995C123.1 50.8995 123.4 50.8995 123.6 50.7995L144.1 42.6995L159.1 57.6995C159.3 57.8995 159.7 57.9995 160 57.9995L182.4 53.5995L204.1 76.6995C204.8 80.2995 205.4 84.0995 205.8 87.9995C199.1 80.6995 176.7 61.2995 122.1 61.2995ZM54.4 197C54.4 200.6 51.5 203.5 47.9 203.5C44.3 203.5 41.4 200.6 41.4 197C41.4 193.4 44.3 190.5 47.9 190.5C51.5 190.6 54.4 193.5 54.4 197ZM48 188.5C45.8 188.5 43.9 187.7 42.4 186C36 179 34.1 156.4 36.5 115.5C36.7 115.5 36.9 115.5 37.1 115.5C43.7 115.7 50 116 54.5 119.5C53.8 127.8 53.5 136.8 53.4 145.7C52.7 146.7 51.9 147.7 51.2 148.6C46.4 154.9 41.5 161.5 42.6 168.4C43.4 173.2 46.6 176.9 52 179.3C51.3 184.9 50.1 188.5 48 188.5ZM56.3 121.2C57.4 122.4 58.3 123.9 59 125.7C61.4 131.7 59 137.3 55.4 142.7C55.6 135.5 55.8 128.1 56.3 121.2ZM53.3 151.2C53.2 160.6 53 170.2 52.3 177.3C48.4 175.4 45.3 172.6 44.6 168.1C43.6 162 48.1 156.1 52.8 149.8C53 149.6 53.2 149.3 53.3 149.1C53.3 149.8 53.3 150.5 53.3 151.2ZM54.2 178C54.7 173.1 55 166.8 55.2 159.3C57.9 165.4 61 171.1 64.5 176C64.2 176.5 63.9 176.9 63.6 177.5C63.2 178.3 62.9 179.2 62.8 180.1C60.1 179.8 57 179.1 54.2 178ZM104.8 178.6C105.3 178.7 105.8 178.8 106.3 178.9V184.2C103.5 183.3 101 182.2 98.6 180.7L104.8 178.6ZM108.3 179.3C112.5 180 116.9 180.4 121.5 180.4V186.3C121.2 186.3 120.9 186.3 120.6 186.3C120.5 186.3 120.4 186.3 120.3 186.4C116 186.4 112 185.9 108.3 184.9V179.3V179.3ZM123.5 180.4C128.1 180.4 132.3 180 135.9 179.4V184.8C132.1 185.8 128 186.3 123.5 186.3V180.4ZM138 179C145.4 177.6 150.6 175.4 153.9 173.5C153.2 174.3 152.5 175.2 151.7 175.9C147.9 179.7 143.3 182.4 138 184.1V179V179ZM157.1 169.1C157.1 169.1 157 169.1 157 169.2C156.9 169.3 146.4 178.4 122.6 178.4C117.7 178.4 113.1 178 108.6 177.3L131.6 169.3C134.7 168.2 136.9 165.4 137.3 162.1C145.8 161.1 156.1 158.9 162.9 154.4C161.8 159 160 164.2 157.1 169.1ZM163.4 151.6C163.4 151.6 163.3 151.6 163.3 151.7C160.4 153.9 156.5 155.6 152.4 156.9V147.3C158.4 145.7 162.4 143.9 164.4 142.9C164.2 144.8 164 147.9 163.4 151.6ZM150.3 157.5C146.2 158.6 141.9 159.4 137.9 159.9V150.4C137.9 150.3 137.9 150.2 137.8 150.1C142.6 149.5 146.7 148.7 150.2 147.8V157.5H150.3ZM136 150.4V160.2C130.5 160.8 125.8 161 123.6 161.1V151.2H123.7C123.8 151.2 123.8 151.2 123.9 151.2C128.3 151.1 132.3 150.8 136 150.4ZM120.4 151.2C120.5 151.2 120.5 151.2 120.6 151.2C120.9 151.2 121.2 151.2 121.5 151.2V161.1C119.8 161.1 114.6 161 108.3 160.2V150.4C112 150.8 116 151.1 120.4 151.2ZM106.3 150.4V159.9C102.3 159.4 98 158.6 93.9 157.5V147.9C97.4 148.8 101.5 149.6 106.3 150.2C106.3 150.3 106.3 150.3 106.3 150.4ZM91.9 157C87.7 155.7 83.9 154 81 151.8C81 151.8 80.9 151.8 80.9 151.7C80.2 147.9 80.1 144.8 80 143C82 144 85.9 145.8 92 147.4V157H91.9ZM102.3 161.4L86 167.1C83.7 162.9 82.3 158.4 81.4 154.5C87.1 158.1 94.9 160.2 102.3 161.4ZM106.6 162.1C114.4 163.1 120.8 163.1 122 163.1C122.1 163.1 122.1 163.1 122.2 163.1C122.3 163.1 122.3 163.1 122.4 163.1C122.5 163.1 122.5 163.1 122.6 163.1C124.1 163.1 129 163 135.2 162.4C134.8 164.7 133.2 166.7 130.9 167.5L77.3 186C78.1 184.7 78.6 183.2 78.6 181.6C78.6 177.8 76 174.7 72.5 173.9L106.6 162.1ZM68.4 187.1C66.8 186.3 65.7 185 65.1 183.4C65 183.1 64.9 182.8 64.9 182.4C67.1 182.6 68.9 182.6 69.9 182.6C70.4 182.6 70.7 182.6 70.8 182.6C71.4 182.6 71.8 182.1 71.8 181.6C71.8 181 71.3 180.6 70.8 180.6C70.7 180.6 68.3 180.7 65 180.3C65.6 177.6 68 175.6 70.8 175.6C74.1 175.6 76.8 178.3 76.8 181.6C76.8 184.9 74.1 187.6 70.8 187.6C70.2 187.6 69.7 187.5 69.1 187.4C68.8 187.3 68.6 187.2 68.4 187.1ZM122.1 202.5C104.6 202.5 89.8 197.6 78.1 187.8L96.2 181.5C102.8 186 111 188.3 120.7 188.3H120.8C120.9 188.3 121 188.3 121.1 188.2C121.9 188.2 122.7 188.3 123.5 188.3C135.8 188.3 145.8 184.6 153.1 177.4C167 163.7 166.3 142.1 166.3 141.2C166.3 140.8 166.1 140.5 165.8 140.4C165.5 140.2 165.1 140.2 164.8 140.4C164.7 140.5 150.8 148.9 122.2 149.2C93.6 148.9 79.7 140.5 79.6 140.4C79.3 140.2 78.9 140.2 78.6 140.4C78.3 140.6 78.1 140.9 78.1 141.2C78.1 141.8 77.7 155.2 84.2 167.7L68.5 173.1C67.6 173.4 66.7 173.9 66 174.5C61.9 168.8 58.4 162.2 55.6 154.8C55.5 154.7 55.5 154.6 55.4 154.5C55.4 153.4 55.4 152.3 55.5 151.1C55.5 149.5 55.5 147.9 55.6 146.2C60.4 139.6 64.3 132.6 61.1 124.8C60 122.1 58.5 120 56.8 118.5C57.8 108 59.6 98.7995 63.1 93.4995C74.3 76.1995 110.2 75.3995 120.7 75.5995C120.8 75.6995 121 75.6995 121.1 75.6995C121.1 75.6995 121.6 75.6995 122.3 75.6995C123.1 75.6995 123.5 75.6995 123.6 75.6995C123.8 75.6995 123.9 75.6995 124 75.5995C134.5 75.3995 170.5 76.1995 181.6 93.4995C188.4 104.1 188.8 129.1 189.1 151.1C189.1 152 189.1 152.8 189.1 153.7C181.7 172.1 163.3 202.5 122.1 202.5ZM203.6 197C203.6 200.6 200.7 203.5 197.1 203.5C193.5 203.5 190.6 200.6 190.6 197C190.6 193.4 193.5 190.5 197.1 190.5C200.7 190.6 203.6 193.5 203.6 197ZM201.8 186C200.3 187.7 198.4 188.5 196.2 188.5C191.8 188.5 191.3 171.4 191 154C191 153.1 191 152.1 191 151.2C190.7 128.9 190.3 103.6 183.1 92.5995C177.3 83.5995 165 77.7995 146.6 75.0995C135.6 73.4995 125.6 73.6995 122.1 73.7995C118.6 73.6995 108.6 73.5995 97.6 75.0995C79.2 77.6995 66.9 83.5995 61.1 92.5995C57.6 98.0995 55.7 107 54.7 117.3C49.7 114.1 43.2 113.8 37.2 113.6C37 113.6 36.8 113.6 36.7 113.6C37.1 106.8 37.6 99.5995 38.3 91.8995C40.1 89.3995 60.2 63.3995 122.2 63.3995C184.2 63.3995 204.3 89.3995 206.1 91.8995C210.7 147.8 209.4 177.7 201.8 186ZM197.4 51.6995C194.1 47.8995 174.8 28.8995 116.7 28.8995C77.2 28.8995 58.4 40.4995 50.6 47.3995C65.1 19.3995 89.2 4.39953 122.2 2.79953C143.4 1.79953 173.8 3.89953 198.3 20.0995C209.9 27.6995 215.8 35.6995 217.8 38.6995C214.2 39.3995 211.4 42.4995 211.1 46.2995C208.2 45.9995 201 45.8995 197.4 51.6995ZM219.5 53.3995C215.9 53.3995 213 50.4995 213 46.8995C213 43.2995 215.9 40.3995 219.5 40.3995C223.1 40.3995 226 43.2995 226 46.8995C225.9 50.4995 223 53.3995 219.5 53.3995Z" fill="black"/>
<path d="M31.8002 33.7996C32.1002 33.7996 32.3002 33.6996 32.5002 33.4996C32.9002 33.0996 32.8002 32.4996 32.4002 32.0996C29.0002 28.9996 27.1002 24.6996 26.9002 20.0996C26.7002 15.4996 28.3002 11.0996 31.5002 7.69957C34.0002 4.99957 37.3002 3.49956 40.9002 3.29956C44.5002 3.09956 48.0002 4.39957 50.7002 6.89957C55.0002 10.8996 55.3002 17.6996 51.3002 21.9996C49.8002 23.5996 47.7002 24.5996 45.5002 24.6996C43.3002 24.7996 41.1002 23.9996 39.5002 22.4996C36.9002 20.0996 36.7002 15.9996 39.1002 13.3996C41.0002 11.3996 44.1002 11.2996 46.1002 13.0996C46.5002 13.4996 47.1002 13.4996 47.5002 12.9996C47.9002 12.5996 47.8002 11.9996 47.4002 11.5996C44.6002 8.99956 40.2002 9.19957 37.5002 11.9996C34.3002 15.3996 34.5002 20.7996 38.0002 23.9996C40.0002 25.8996 42.7002 26.7996 45.4002 26.6996C48.2002 26.5996 50.7002 25.3996 52.6002 23.3996C57.3002 18.2996 57.0002 10.1996 51.9002 5.49957C48.8002 2.69957 44.9002 1.19957 40.7002 1.39957C36.5002 1.59957 32.7002 3.29957 29.9002 6.39957C26.4002 10.1996 24.6002 15.0996 24.8002 20.1996C25.0002 25.2996 27.2002 30.0996 31.0002 33.5996C31.3002 33.6996 31.5002 33.7996 31.8002 33.7996Z" fill="black"/>
</svg>
