<svg width="293" height="104" viewBox="0 0 293 104" fill="none" xmlns="http://www.w3.org/2000/svg">
<path d="M53.4844 103.547C46.4531 103.547 39.75 102.375 33.375 100.031C27.0938 97.5937 21.5625 94.125 16.7813 89.625C12 85.125 8.25 79.9687 5.53125 74.1562C2.90625 68.3437 1.35938 62.1562 0.890625 55.5937L2.4375 55.4531C2.8125 62.2031 4.35938 68.4375 7.07813 74.1562C9.89063 79.7812 13.5469 84.7031 18.0469 88.9219C22.5469 93.0469 27.7969 96.2812 33.7969 98.625C39.8906 100.875 46.4531 102 53.4844 102C60.7031 102 67.4063 100.734 73.5938 98.2031C79.875 95.5781 85.3125 92.0625 89.9063 87.6562C94.5938 83.1562 98.25 77.9062 100.875 71.9062C103.5 65.8125 104.813 59.25 104.813 52.2187V51.9375C104.813 44.9062 103.5 38.3437 100.875 32.25C98.3438 26.1562 94.7813 20.9062 90.1875 16.5C85.5938 12.0937 80.2031 8.625 74.0156 6.09374C67.8281 3.56249 61.0781 2.29687 53.7656 2.29687C46.7344 2.29687 40.125 3.51562 33.9375 5.95312C27.8438 8.39062 22.5 11.7656 17.9063 16.0781C13.4063 20.2969 9.75 25.3125 6.9375 31.125C4.21875 36.9375 2.71875 43.2187 2.4375 49.9687L0.890625 49.8281C1.17188 42.7969 2.71875 36.3281 5.53125 30.4219C8.4375 24.4219 12.2344 19.2187 16.9219 14.8125C21.6094 10.4062 27.0938 6.98437 33.375 4.54687C39.75 2.01562 46.5469 0.749996 53.7656 0.749996C61.2656 0.749996 68.2031 2.0625 74.5781 4.6875C81.0469 7.3125 86.625 10.9219 91.3125 15.5156C96 20.0156 99.6563 25.4062 102.281 31.6875C105 37.875 106.359 44.625 106.359 51.9375V52.2187C106.359 59.1562 105.094 65.7656 102.563 72.0469C100.031 78.2344 96.3281 83.7187 91.4531 88.5C86.4844 93.375 80.7188 97.125 74.1563 99.75C67.6875 102.281 60.7969 103.547 53.4844 103.547ZM53.7656 83.7187C49.5469 83.7187 45.5625 82.9219 41.8125 81.3281C38.1563 79.6406 34.9219 77.3906 32.1094 74.5781C29.3906 71.7656 27.2344 68.4375 25.6406 64.5937C24.1406 60.75 23.3906 56.625 23.3906 52.2187V51.9375C23.3906 47.4375 24.1406 43.3125 25.6406 39.5625C27.2344 35.7187 29.3438 32.4375 31.9688 29.7188C34.6875 26.9062 37.875 24.7031 41.5313 23.1094C45.1875 21.5156 49.1719 20.7187 53.4844 20.7187C57.6094 20.7187 61.4531 21.4687 65.0156 22.9687C68.5781 24.375 71.7188 26.3906 74.4375 29.0156C77.1563 31.5469 79.3125 34.5937 80.9063 38.1562C82.5938 41.7187 83.5781 45.6094 83.8594 49.8281L82.3125 49.9687C82.0313 45.9375 81.0938 42.2344 79.5 38.8594C77.9063 35.4844 75.8438 32.5781 73.3125 30.1406C70.7813 27.7031 67.8281 25.7812 64.4531 24.375C61.0781 22.9687 57.4219 22.2656 53.4844 22.2656C49.3594 22.2656 45.5625 23.0156 42.0938 24.5156C38.625 26.0156 35.625 28.0781 33.0938 30.7031C30.5625 33.3281 28.5469 36.4687 27.0469 40.125C25.6406 43.7812 24.9375 47.7187 24.9375 51.9375V52.2187C24.9375 56.4375 25.6406 60.375 27.0469 64.0312C28.5469 67.6875 30.5625 70.875 33.0938 73.5937C35.7188 76.2187 38.7656 78.3281 42.2344 79.9219C45.7969 81.4219 49.6406 82.1719 53.7656 82.1719C57.6094 82.1719 61.1719 81.5156 64.4531 80.2031C67.8281 78.8906 70.7344 77.0625 73.1719 74.7187C75.7031 72.375 77.7656 69.5625 79.3594 66.2812C80.9531 63 81.8906 59.3906 82.1719 55.4531L83.7188 55.5937C83.3438 59.7187 82.3125 63.5156 80.625 66.9844C79.0313 70.3594 76.875 73.3125 74.1563 75.8437C71.5313 78.2812 68.4375 80.2031 64.875 81.6094C61.4063 83.0156 57.7031 83.7187 53.7656 83.7187ZM53.7656 91.4531C48.4219 91.4531 43.4063 90.4687 38.7188 88.5C34.125 86.5312 30.0938 83.625 26.625 79.7812C23.1563 76.125 20.4844 71.9531 18.6094 67.2656C16.8281 62.5781 15.9375 57.5625 15.9375 52.2187V51.7969C15.9375 46.5469 16.7813 41.6719 18.4688 37.1719C20.25 32.5781 22.6406 28.5937 25.6406 25.2187C28.7344 21.75 32.3906 18.9375 36.6094 16.7812C40.8281 14.625 45.4219 13.3594 50.3906 12.9844L50.5313 14.5312C45.75 14.9062 41.3438 16.125 37.3125 18.1875C33.2813 20.25 29.7656 22.9219 26.7656 26.2031C23.8594 29.4844 21.5625 33.3281 19.875 37.7344C18.2813 42.0469 17.4844 46.7344 17.4844 51.7969V52.2187C17.4844 57.5625 18.375 62.5312 20.1563 67.125C22.0313 71.7187 24.5625 75.7031 27.75 79.0781C31.0313 82.4531 34.875 85.125 39.2813 87.0937C43.7813 88.9687 48.6094 89.9062 53.7656 89.9062C58.9219 89.9062 63.6563 88.9687 67.9688 87.0937C72.375 85.2187 76.1719 82.5937 79.3594 79.2187C82.6406 75.8437 85.1719 71.9062 86.9531 67.4062C88.8281 62.8125 89.7656 57.8437 89.7656 52.5V52.2187C89.7656 47.1562 88.9219 42.4219 87.2344 38.0156C85.5469 33.6094 83.1563 29.7187 80.0625 26.3437C77.0625 22.9687 73.5 20.25 69.375 18.1875C65.3438 16.125 60.9375 14.9062 56.1563 14.5312V12.9844C61.2188 13.3594 65.8594 14.625 70.0781 16.7812C74.3906 18.9375 78.0938 21.7969 81.1875 25.3594C84.375 28.8281 86.8594 32.8594 88.6406 37.4531C90.4219 42.0469 91.3125 46.9687 91.3125 52.2187V52.5C91.3125 58.0312 90.3281 63.1875 88.3594 67.9687C86.4844 72.75 83.8594 76.875 80.4844 80.3437C77.2031 83.8125 73.2656 86.5312 68.6719 88.5C64.0781 90.4687 59.1094 91.4531 53.7656 91.4531ZM56.1563 97.6406V96.0937C62.0625 95.8125 67.5469 94.5 72.6094 92.1562C77.7656 89.7187 82.1719 86.5312 85.8281 82.5937C89.5781 78.6562 92.4844 74.1094 94.5469 68.9531C96.7031 63.7031 97.7813 58.125 97.7813 52.2187V51.9375C97.7813 45.75 96.6563 39.9844 94.4063 34.6406C92.1563 29.2969 89.0625 24.6562 85.125 20.7187C81.1875 16.7812 76.5469 13.7344 71.2031 11.5781C65.8594 9.32812 60.0469 8.20312 53.7656 8.20312C47.5781 8.20312 41.7656 9.32812 36.3281 11.5781C30.9844 13.8281 26.2969 16.9687 22.2656 21C18.3281 24.9375 15.1875 29.5781 12.8438 34.9219C10.5938 40.2656 9.46875 46.0312 9.46875 52.2187V52.5C9.46875 58.4062 10.5 63.9375 12.5625 69.0937C14.625 74.25 17.4844 78.7969 21.1406 82.7344C24.7969 86.5781 29.1094 89.6719 34.0781 92.0156C39.1406 94.3594 44.625 95.7187 50.5313 96.0937L50.3906 97.6406C44.3906 97.2656 38.7656 95.8594 33.5156 93.4219C28.3594 90.9844 23.8125 87.6562 19.875 83.4375C15.9375 79.2187 12.9375 74.4844 10.875 69.2344C8.90625 63.9844 7.92188 58.4062 7.92188 52.5V52.2187C7.92188 46.0312 9 40.1719 11.1563 34.6406C13.4063 29.1094 16.6406 24.2344 20.8594 20.0156C25.1719 15.7031 30.1406 12.4219 35.7656 10.1719C41.3906 7.82812 47.3906 6.65625 53.7656 6.65625C60.2344 6.65625 66.2344 7.82812 71.7656 10.1719C77.3906 12.4219 82.2188 15.5625 86.25 19.5937C90.375 23.625 93.5625 28.4062 95.8125 33.9375C98.1563 39.4687 99.3281 45.4687 99.3281 51.9375V52.2187C99.3281 58.4062 98.2031 64.1719 95.9531 69.5156C93.7969 74.8594 90.7969 79.5937 86.9531 83.7187C83.1094 87.75 78.5625 91.0312 73.3125 93.5625C68.0625 96 62.3438 97.3594 56.1563 97.6406ZM160.462 84.4219C155.305 84.4219 150.337 83.4844 145.555 81.6094C140.774 79.6406 135.852 76.5469 130.79 72.3281L131.774 71.2031C136.649 75.1406 141.383 78.0937 145.977 80.0625C150.665 81.9375 155.493 82.875 160.462 82.875C164.68 82.875 167.962 82.125 170.305 80.625C172.649 79.125 173.821 77.0625 173.821 74.4375V74.1562C173.821 72.9375 173.587 71.8594 173.118 70.9219C172.649 69.9844 171.712 69.0469 170.305 68.1094C168.993 67.1719 167.071 66.2812 164.54 65.4375C162.102 64.5 158.821 63.5156 154.696 62.4844C150.008 61.2656 145.649 59.9531 141.618 58.5469C137.587 57.1406 134.071 55.3125 131.071 53.0625C128.165 50.8125 125.868 48 124.18 44.625C122.493 41.25 121.649 36.9844 121.649 31.8281V31.5469C121.649 27.0469 122.493 22.9687 124.18 19.3125C125.962 15.5625 128.399 12.375 131.493 9.75C134.587 7.03124 138.243 4.92187 142.462 3.42187C146.774 1.92187 151.508 1.17187 156.665 1.17187C170.633 1.17187 182.915 5.39062 193.508 13.8281L192.524 15.0937C182.305 6.84375 170.352 2.71875 156.665 2.71875C151.696 2.71875 147.149 3.42187 143.024 4.82812C138.899 6.14062 135.337 8.06249 132.337 10.5937C129.43 13.125 127.18 16.1719 125.587 19.7344C123.993 23.2969 123.196 27.2344 123.196 31.5469V31.8281C123.196 36.7031 123.993 40.7344 125.587 43.9219C127.18 47.1094 129.383 49.7812 132.196 51.9375C135.008 54 138.337 55.7344 142.18 57.1406C146.118 58.4531 150.43 59.7187 155.118 60.9375C159.055 61.9687 162.337 62.9531 164.962 63.8906C167.587 64.7344 169.649 65.6719 171.149 66.7031C172.743 67.7344 173.821 68.8594 174.383 70.0781C175.04 71.2031 175.368 72.5625 175.368 74.1562V74.4375C175.368 77.5312 174.055 79.9687 171.43 81.75C168.805 83.5312 165.149 84.4219 160.462 84.4219ZM160.04 103.406C152.165 103.406 144.618 102.047 137.399 99.3281C130.274 96.6094 123.805 92.6719 117.993 87.5156L117.43 87.0937L126.712 76.125L127.274 76.4062C134.118 80.9062 140.258 84.1406 145.696 86.1094C151.227 88.0781 156.665 89.0625 162.008 89.0625C165.29 89.0625 168.196 88.6875 170.727 87.9375C173.258 87.0937 175.368 86.0156 177.055 84.7031C178.743 83.3906 180.008 81.8906 180.852 80.2031C181.696 78.5156 182.118 76.8281 182.118 75.1406V74.7187C182.118 72.375 181.79 70.3594 181.133 68.6719C180.477 66.8906 179.118 65.25 177.055 63.75C175.087 62.25 172.227 60.8437 168.477 59.5312C164.821 58.125 159.899 56.5781 153.712 54.8906L153.149 54.75C150.337 54 147.571 53.1094 144.852 52.0781C142.227 51.0469 139.79 49.7812 137.54 48.2812C135.383 46.7812 133.555 45 132.055 42.9375C130.649 40.7812 129.712 38.2031 129.243 35.2031L130.649 34.9219C131.399 39.4219 133.508 43.0781 136.977 45.8906C140.54 48.7031 146.071 51.1875 153.571 53.3437L154.133 53.4844C160.133 55.0781 165.008 56.5781 168.758 57.9844C172.602 59.3906 175.602 60.8906 177.758 62.4844C180.008 64.0781 181.555 65.8594 182.399 67.8281C183.243 69.7031 183.665 72 183.665 74.7187V75.1406C183.665 77.1094 183.196 79.0312 182.258 80.9062C181.321 82.6875 179.915 84.3281 178.04 85.8281C176.258 87.2344 174.008 88.4062 171.29 89.3437C168.665 90.1875 165.571 90.6094 162.008 90.6094C156.571 90.6094 151.087 89.625 145.555 87.6562C140.024 85.6875 133.837 82.5 126.993 78.0937L119.68 86.9531C125.305 91.7344 131.54 95.4375 138.383 98.0625C145.227 100.594 152.446 101.859 160.04 101.859C165.477 101.859 170.352 101.203 174.665 99.8906C178.977 98.4844 182.633 96.5156 185.633 93.9844C188.727 91.4531 191.071 88.3594 192.665 84.7031C194.352 81.0469 195.196 76.9219 195.196 72.3281V72.0469C195.196 67.7344 194.493 64.0312 193.087 60.9375C191.68 57.8437 189.665 55.2187 187.04 53.0625C184.415 50.9062 181.227 49.0781 177.477 47.5781C173.727 45.9844 169.508 44.5781 164.821 43.3594C160.508 42.2344 156.946 41.25 154.133 40.4062C151.321 39.5625 149.071 38.6719 147.383 37.7344C145.79 36.7031 144.665 35.5781 144.008 34.3594C143.352 33.1406 143.024 31.6406 143.024 29.8594V29.5781C143.024 26.7656 144.243 24.5156 146.68 22.8281C149.118 21.1406 152.352 20.2969 156.383 20.2969C164.165 20.2969 172.602 23.3906 181.696 29.5781L188.587 19.5937C183.243 16.2187 177.758 13.5937 172.133 11.7187C166.602 9.84374 161.54 8.90624 156.946 8.90624C149.446 8.90624 143.258 10.8281 138.383 14.6719C133.602 18.4219 130.977 23.3906 130.508 29.5781L128.962 29.4375C129.243 26.1562 130.087 23.1562 131.493 20.4375C132.993 17.7187 134.962 15.4219 137.399 13.5469C139.837 11.5781 142.696 10.0781 145.977 9.04687C149.352 7.92187 153.008 7.35937 156.946 7.35937C161.821 7.35937 167.165 8.34375 172.977 10.3125C178.79 12.2812 184.508 15.0469 190.133 18.6094L190.837 19.1719L182.118 31.6875L181.415 31.2656C172.321 24.9844 163.977 21.8437 156.383 21.8437C152.821 21.8437 149.962 22.5469 147.805 23.9531C145.649 25.2656 144.571 27.1406 144.571 29.5781V29.8594C144.571 31.2656 144.852 32.4844 145.415 33.5156C145.977 34.5469 147.008 35.5312 148.508 36.4687C150.008 37.3125 152.071 38.1562 154.696 39C157.415 39.8437 160.883 40.8281 165.102 41.9531C169.883 43.1719 174.196 44.5781 178.04 46.1719C181.977 47.7656 185.305 49.7344 188.024 52.0781C190.837 54.4219 192.993 57.2344 194.493 60.5156C195.993 63.7031 196.743 67.5469 196.743 72.0469V72.3281C196.743 77.1094 195.899 81.4219 194.212 85.2656C192.524 89.1094 190.087 92.3906 186.899 95.1094C183.712 97.7344 179.821 99.7969 175.227 101.297C170.727 102.703 165.665 103.406 160.04 103.406ZM188.727 71.625C188.54 68.4375 187.79 65.7656 186.477 63.6094C185.165 61.3594 183.43 59.4375 181.274 57.8437C179.212 56.25 176.821 54.9375 174.102 53.9062C171.477 52.875 168.712 51.9375 165.805 51.0937L165.243 50.9531C159.243 49.3594 154.321 47.8594 150.477 46.4531C146.633 45.0469 143.633 43.5469 141.477 41.9531C139.321 40.3594 137.821 38.5781 136.977 36.6094C136.133 34.6406 135.712 32.2969 135.712 29.5781V29.1562C135.712 27.2812 136.18 25.4062 137.118 23.5312C138.055 21.6562 139.415 20.0156 141.196 18.6094C142.977 17.1094 145.18 15.9375 147.805 15.0937C150.524 14.1562 153.665 13.6875 157.227 13.6875C161.54 13.6875 165.665 14.2969 169.602 15.5156C173.633 16.6406 177.946 18.5156 182.54 21.1406L181.696 22.5469C177.196 20.0156 173.024 18.1875 169.18 17.0625C165.43 15.8437 161.446 15.2344 157.227 15.2344C153.946 15.2344 151.04 15.6562 148.508 16.5C146.071 17.25 144.008 18.2812 142.321 19.5937C140.633 20.9062 139.368 22.4062 138.524 24.0937C137.68 25.7812 137.258 27.4687 137.258 29.1562V29.5781C137.258 31.9219 137.587 33.9844 138.243 35.7656C138.899 37.4531 140.212 39.0469 142.18 40.5469C144.149 42.0469 146.962 43.5 150.618 44.9062C154.368 46.2187 159.337 47.7187 165.524 49.4062L166.227 49.5469C169.227 50.3906 172.133 51.375 174.946 52.5C177.758 53.625 180.243 55.0312 182.399 56.7187C184.649 58.4062 186.477 60.4687 187.883 62.9062C189.29 65.25 190.087 68.1094 190.274 71.4844L188.727 71.625ZM162.29 97.0781C160.696 97.0781 158.68 96.9375 156.243 96.6562C153.805 96.375 150.993 95.8125 147.805 94.9687C144.712 94.125 141.29 92.9531 137.54 91.4531C133.883 89.8594 129.993 87.75 125.868 85.125L126.712 83.8594C130.743 86.3906 134.54 88.4531 138.102 90.0469C141.758 91.5469 145.087 92.7187 148.087 93.5625C151.18 94.3125 153.899 94.8281 156.243 95.1094C158.68 95.3906 160.696 95.5312 162.29 95.5312C169.321 95.5312 175.18 93.8437 179.868 90.4687C184.649 87.0937 187.508 82.5937 188.446 76.9687L189.993 77.25C188.962 83.3437 185.962 88.1719 180.993 91.7344C176.024 95.2969 169.79 97.0781 162.29 97.0781ZM236.912 102H220.318V8.20312H252.1C262.975 8.20312 271.365 10.7344 277.271 15.7969C283.178 20.8594 286.131 28.0781 286.131 37.4531V38.0156C286.131 42.4219 285.334 46.4531 283.74 50.1094C282.146 53.6719 279.896 56.7656 276.99 59.3906C274.084 61.9219 270.568 63.8906 266.443 65.2969C262.318 66.7031 257.771 67.4062 252.803 67.4062H229.459V95.1094H227.912V65.8594H252.803C257.584 65.8594 261.896 65.2031 265.74 63.8906C269.678 62.4844 273.006 60.5625 275.725 58.125C278.537 55.6875 280.693 52.7812 282.193 49.4062C283.787 45.9375 284.584 42.1406 284.584 38.0156V37.4531C284.584 28.6406 281.771 21.8437 276.146 17.0625C270.521 12.1875 262.506 9.75 252.1 9.75H221.865V100.453H235.365V71.0625H252.521C258.428 71.0625 263.771 70.2656 268.553 68.6719C273.334 67.0781 277.412 64.8281 280.787 61.9219C284.162 59.0156 286.74 55.5 288.521 51.375C290.396 47.25 291.334 42.6094 291.334 37.4531V37.1719C291.334 32.2031 290.443 27.7031 288.662 23.6719C286.975 19.5469 284.537 16.0781 281.35 13.2656C278.162 10.3594 274.271 8.10937 269.678 6.51562C265.178 4.92187 260.162 4.12499 254.631 4.12499H215.396V101.297H213.85V2.57812H254.631C260.443 2.57812 265.693 3.42187 270.381 5.10937C275.068 6.70312 279.053 8.99999 282.334 12C285.709 15 288.287 18.6562 290.068 22.9687C291.943 27.1875 292.881 31.9219 292.881 37.1719V37.4531C292.881 42.7969 291.896 47.625 289.928 51.9375C288.053 56.25 285.334 59.9531 281.771 63.0469C278.303 66.1406 274.084 68.5312 269.115 70.2187C264.146 71.8125 258.615 72.6094 252.521 72.6094H236.912V102ZM252.803 60.6563H227.912V15.6562H229.459V59.1094H252.803C260.115 59.1094 265.975 57.1875 270.381 53.3437C274.787 49.5 276.99 44.3906 276.99 38.0156V37.5937C276.99 30.8437 274.834 25.6406 270.521 21.9844C266.303 18.3281 260.209 16.5 252.24 16.5H236.209V14.9531H252.24C260.678 14.9531 267.146 16.9219 271.646 20.8594C276.24 24.7969 278.537 30.375 278.537 37.5937V38.0156C278.537 41.3906 277.881 44.4844 276.568 47.2969C275.35 50.0156 273.615 52.4062 271.365 54.4687C269.115 56.4375 266.396 57.9844 263.209 59.1094C260.115 60.1406 256.646 60.6563 252.803 60.6563ZM253.225 53.4844H242.396V51.9375H253.225C258.1 51.9375 262.037 50.6719 265.037 48.1406C268.037 45.5156 269.537 42.0937 269.537 37.875V37.5937C269.537 33.0937 268.084 29.625 265.178 27.1875C262.271 24.75 258.146 23.5312 252.803 23.5312H236.912V52.7812H235.365V21.9844H252.803C258.521 21.9844 262.975 23.3906 266.162 26.2031C269.443 28.9219 271.084 32.7187 271.084 37.5937V37.875C271.084 42.6562 269.443 46.4531 266.162 49.2656C262.881 52.0781 258.568 53.4844 253.225 53.4844Z" fill="black"/>
</svg>
