<svg id="Layer_1" data-name="Layer 1" xmlns="http://www.w3.org/2000/svg" viewBox="0 0 467.75 94"><defs><style>.cls-1{fill:#fff;}</style></defs><g id="mM"><g id="Logo"><rect class="cls-1" y="71.89" width="20" height="20"/><path class="cls-1" d="M298,71V81h1.09A24.64,24.64,0,0,1,309,71.73a28.65,28.65,0,0,1,12.4-2.91c5.36,0,9.75.7,13.17,2.15a19.69,19.69,0,0,1,8.11,6c2,2.57,2.85,5.69,3.66,9.37s.71,7.78.71,12.27V143H327V102.27c0-6-.45-10.44-2.32-13.38s-5-4.42-9.76-4.42c-5.46,0-9.61,1.61-12.05,4.84S299,97.84,299,105.22V143H279V71Z" transform="translate(-71 -51)"/><path class="cls-1" d="M403,71V84H388v35.92c0,3.36.84,5.6,1.95,6.73s3.53,1.67,6.9,1.67a26,26,0,0,0,3.23-.13,23.9,23.9,0,0,0,2.92-.43v15.43a51.67,51.67,0,0,1-5.54.54c-2.07.1-4,.16-6,.16a58.79,58.79,0,0,1-8.79-.64,21.27,21.27,0,0,1-7.3-2.44,13.76,13.76,0,0,1-5.27-5.19,18.22,18.22,0,0,1-2.09-8.83V84H356V71h12V56l20-5V71Z" transform="translate(-71 -51)"/><path class="cls-1" d="M431,71V84h1.05a29.17,29.17,0,0,1,3.83-6.15A24.64,24.64,0,0,1,441.37,73a26.6,26.6,0,0,1,6.6-3.12,21.92,21.92,0,0,1,7-1.12,17,17,0,0,1,4,.72V88a28.69,28.69,0,0,0-3.06-.5,33.45,33.45,0,0,0-3.61-.2,21.19,21.19,0,0,0-9.22,1.81,16.25,16.25,0,0,0-6.09,5,20.41,20.41,0,0,0-3.67,7.35,39.11,39.11,0,0,0-1.35,9.12V143H412V71Z" transform="translate(-71 -51)"/><path class="cls-1" d="M466.06,91.27a33.18,33.18,0,0,1,19.45-19.75A41.2,41.2,0,0,1,501,68.78a42,42,0,0,1,15.56,2.74,33,33,0,0,1,19.51,19.75A44.19,44.19,0,0,1,538.75,107a43.81,43.81,0,0,1-2.68,15.7,34,34,0,0,1-7.61,12,33.59,33.59,0,0,1-11.9,7.63,46.64,46.64,0,0,1-31,0,33.63,33.63,0,0,1-11.84-7.63,34.4,34.4,0,0,1-7.61-12,43.8,43.8,0,0,1-2.67-15.7A44.25,44.25,0,0,1,466.06,91.27Zm18.17,24.24a22.65,22.65,0,0,0,2.9,7.43,15.34,15.34,0,0,0,5.43,5.25,16.53,16.53,0,0,0,8.44,1.95,17,17,0,0,0,8.53-1.95,15.26,15.26,0,0,0,5.49-5.25,22.61,22.61,0,0,0,2.88-7.43,42.35,42.35,0,0,0,.85-8.48,43.88,43.88,0,0,0-.85-8.55,21.6,21.6,0,0,0-2.9-7.42,16,16,0,0,0-5.49-5.25,16.57,16.57,0,0,0-8.53-2,15.45,15.45,0,0,0-13.87,7.29,22.09,22.09,0,0,0-2.9,7.42,42.87,42.87,0,0,0,0,17Z" transform="translate(-71 -51)"/><path class="cls-1" d="M201.74,81.35a24.26,24.26,0,0,1,7.87-7.45,34.74,34.74,0,0,1,10.8-4,61.19,61.19,0,0,1,12-1.19,82.92,82.92,0,0,1,11.13.76,34.65,34.65,0,0,1,10.3,3,19.78,19.78,0,0,1,7.4,6.24c2,2.67,2.74,6.2,2.74,10.59V127a74.76,74.76,0,0,0,.77,9.33A19.72,19.72,0,0,0,267,143H246.66a21.9,21.9,0,0,1-.91-3.38,28.18,28.18,0,0,1-.5-3.54A25.68,25.68,0,0,1,234,143a45,45,0,0,1-13.23,2,35.51,35.51,0,0,1-9.73-1.26,22,22,0,0,1-7.87-3.92,18.21,18.21,0,0,1-5.29-6.73,22.56,22.56,0,0,1-1.91-9.65,21.06,21.06,0,0,1,2.19-10.17,18.18,18.18,0,0,1,5.64-6.37,25.67,25.67,0,0,1,7.88-3.58,86.13,86.13,0,0,1,9-1.89c3-.46,6-.84,8.88-1.11A55.53,55.53,0,0,0,237.24,99a13.55,13.55,0,0,0,5.34-2.45,5.36,5.36,0,0,0,1.83-4.69,10.53,10.53,0,0,0-1-5.12,7.75,7.75,0,0,0-2.82-3,11.37,11.37,0,0,0-4.08-1.4,36.42,36.42,0,0,0-5-.34c-3.94,0-7,.86-9.29,2.54s-3.63,4.46-4,8.46h-20C198.5,89,199.67,84.43,201.74,81.35ZM241,109.42a32.73,32.73,0,0,1-4,1.06c-1.45.27-2.93.5-4.52.7s-3.18.41-4.78.69a35.35,35.35,0,0,0-4.42,1.13,12.85,12.85,0,0,0-3.8,1.88,8.93,8.93,0,0,0-2.6,3,9.71,9.71,0,0,0-1,4.62,9.42,9.42,0,0,0,1,4.48,7.52,7.52,0,0,0,2.69,2.88,11.39,11.39,0,0,0,3.94,1.47,24.16,24.16,0,0,0,4.65.42c3.93,0,7-.65,9.15-2a13.06,13.06,0,0,0,4.78-4.7,14.84,14.84,0,0,0,1.71-5.54,31.75,31.75,0,0,0,.14-4.47v-7.43C244,108.42,242.31,109,241,109.42Z" transform="translate(-71 -51)"/><path class="cls-1" d="M90,71V81h.16a26.08,26.08,0,0,1,22.27-11.93A29.3,29.3,0,0,1,125,71.68,17.51,17.51,0,0,1,133.7,81a30.65,30.65,0,0,1,8.8-8.37A23.55,23.55,0,0,1,155.69,69a39.49,39.49,0,0,1,10.7,1.39,21.63,21.63,0,0,1,8.46,4.46,20.26,20.26,0,0,1,5.33,8A32.33,32.33,0,0,1,182,94.79V143H162V102.16c0-2.41.05-4.69-.12-6.83a14.36,14.36,0,0,0-1.48-5.56A9.26,9.26,0,0,0,156.7,86a13.73,13.73,0,0,0-6.7-1.39,13.08,13.08,0,0,0-6.82,1.59,11.78,11.78,0,0,0-4.08,4.19,16.8,16.8,0,0,0-1.81,5.86,45.59,45.59,0,0,0-.31,6.61V143H117V102.59c0-2.15-.22-4.26-.31-6.34a18.55,18.55,0,0,0-1.27-5.79,9.3,9.3,0,0,0-3.58-4.26c-1.64-1.06-4.1-1.59-7.29-1.59a14.79,14.79,0,0,0-3.74.63,12.1,12.1,0,0,0-4.52,2.36,14.09,14.09,0,0,0-3.72,5A19.89,19.89,0,0,0,91,101.18V118H71V71Z" transform="translate(-71 -51)"/></g></g></svg>