<?xml version="1.0" encoding="UTF-8"?> <svg xmlns="http://www.w3.org/2000/svg" width="161.5" height="27.719" viewBox="0 0 161.5 27.719"><g id="capmo-logo-mobile" transform="translate(-33.188 -36.306)"><g id="Gruppe_160" data-name="Gruppe 160" transform="translate(74.147 36.306)"><path id="Pfad_77" data-name="Pfad 77" d="M121.636,36.814H135.08c4.727,0,5.866,2.33,5.866,5.453v1.363c0,2.386-1.024,5.169-4.556,5.169h-9.8v4.033h-4.956Zm4.956,8.009h7.69a1.5,1.5,0,0,0,1.6-1.7v-.624c0-1.08-.513-1.7-2.051-1.7h-7.235Z" transform="translate(-73.67 -36.303)" fill="#2c2c2c"></path><path id="Pfad_78" data-name="Pfad 78" d="M171.78,42.382c0-4.714,2.621-5.794,7.121-5.794h7.918c4.443,0,7.12,1.136,7.12,5.794v4.772c0,4.714-2.62,5.793-7.12,5.793H178.9c-4.444,0-7.121-1.136-7.121-5.793Zm5.07,3.295c0,2.329.513,3.237,2.848,3.237h6.324c2.336,0,2.848-.909,2.848-3.237v-1.7c0-1.989-.513-3.238-3.077-3.238h-5.81c-2.621,0-3.076,1.193-3.076,3.238v1.7Z" transform="translate(-73.399 -36.304)" fill="#95b917"></path><path id="Pfad_79" data-name="Pfad 79" d="M115.393,45c-.056-.057-.056-.114-.114-.171l-4.272-7.156c-1.083-1.818-4.957-1.818-6.038,0l-.171.284-3.988,6.759v.057l-4.727,8.065h5.526l1.424-2.613h10.027l1.537,2.613h5.469Zm-10.481,2.045,3.133-5.567,3.19,5.567Z" transform="translate(-73.807 -36.306)" fill="#2c2c2c"></path><path id="Pfad_80" data-name="Pfad 80" d="M90.9,46.983c-.228,1.363-.911,1.874-2.735,1.874H81.846C79.51,48.857,79,47.948,79,45.62v-1.7c0-1.988.513-3.237,3.077-3.237h5.81c2.051,0,2.791.738,3.019,2.045h5.184v-.4c0-4.714-2.62-5.793-7.12-5.793H81.048c-4.444,0-7.121,1.136-7.121,5.793V47.1c0,4.714,2.621,5.794,7.121,5.794h7.919c4.443,0,7.12-1.136,7.12-5.794v-.227H90.9Z" transform="translate(-73.927 -36.305)" fill="#2c2c2c"></path><path id="Pfad_81" data-name="Pfad 81" d="M161.853,36.814l-5.583,9.145-5.583-9.145H143.11V52.889H147.9V41.3h.056l6.495,10.679a2.2,2.2,0,0,0,3.646,0L164.586,41.3h.057V52.832h4.785V36.814Z" transform="translate(-73.554 -36.303)" fill="#95b917"></path></g><g id="Gruppe_161" data-name="Gruppe 161" transform="translate(33.188 36.874)"><path id="Pfad_82" data-name="Pfad 82" d="M53.785,48.855h6.607V38.575a1.711,1.711,0,0,0-1.708-1.7H48.43V43.63A6.987,6.987,0,0,1,53.785,48.855Z" transform="translate(-33.106 -36.871)" fill="#95b917"></path><path id="Pfad_83" data-name="Pfad 83" d="M53.867,52.15a7.074,7.074,0,1,1-8.489-8.52V36.871A13.617,13.617,0,0,0,33.188,50.39V62.318a1.712,1.712,0,0,0,1.709,1.7H46.86A13.65,13.65,0,0,0,60.418,52.094H53.867Z" transform="translate(-33.188 -36.871)" fill="#2c2c2c"></path></g></g></svg> 