<?xml version="1.0" encoding="UTF-8" standalone="no"?>
<!-- Created with Inkscape (http://www.inkscape.org/) -->
<svg
   xmlns:svg="http://www.w3.org/2000/svg"
   xmlns="http://www.w3.org/2000/svg"
   version="1.0"
   width="985.96063"
   height="336.72046"
   id="svg10463">
  <defs
     id="defs10465">
    <clipPath
       id="clp24">
<path
   d="M 473.26,498.55 C 473.82,505.17 477.99,511.9 484.63,512 C 488.36,512.06 491.47,509.8 493.52,506.65 L 492.88,506.65 C 491.15,509.22 488.59,511.05 485.52,511.08 C 479.57,511.13 475.94,505.01 475.66,499.12 C 475.65,498.95 475.66,498.72 475.66,498.55 C 474.89,498.55 474.07,498.55 473.26,498.55"
   id="path14898" />

</clipPath>
    <clipPath
       id="clp29">
<path
   d="M 472.89,498.91 C 473.46,505.35 477.78,512.14 484.66,512.24 C 488.56,512.3 491.8,509.86 493.93,506.65 L 493.27,506.65 C 491.48,509.3 488.8,511.31 485.58,511.34 C 479.42,511.39 475.66,505.43 475.37,499.7 C 475.36,499.53 475.36,499.08 475.36,498.91"
   id="path15309" />

</clipPath>
    <clipPath
       id="clp34">
<path
   d="M 472.45,499.15 C 473.03,505.72 477.45,512.4 484.49,512.51 C 488.67,512.57 492.11,510.05 494.27,506.65 L 493.6,506.65 C 491.77,509.47 488.91,511.55 485.43,511.58 C 479.13,511.64 475.29,505.57 474.99,499.72 C 474.98,499.55 474.98,499.32 474.98,499.15"
   id="path15502" />

</clipPath>
  </defs>
  <g
     transform="translate(16.01534,-521.6492)"
     id="layer1">
    <path
       d="M 378.88465,653.19391 C 360.38249,648.2852 343.20191,644.88686 327.24852,644.88686 C 310.44554,644.88686 297.13532,652.06116 297.13532,663.20021 C 297.13532,673.67845 307.04719,679.9088 324.69976,679.9088 C 342.82432,679.9088 361.23207,668.67534 378.88465,653.19391 M 324.51096,689.53749 C 291.47139,689.53749 270.70367,679.71999 270.70367,665.3714 C 270.70367,644.88686 303.46004,634.21982 341.97473,634.21982 C 357.92812,634.21982 375.29749,636.20212 393.61086,639.22293 C 400.78516,631.95423 407.86506,624.21352 414.66178,616.66161 C 428.2552,601.5578 448.26774,579.8461 464.97632,567.00787 C 496.69431,542.74738 537.19138,525.18918 579.95402,525.18918 C 633.10052,525.18918 675.67437,543.12499 675.67437,569.9342 C 675.67437,585.32123 660.57056,598.63147 633.57251,599.66982 L 632.72293,594.76111 C 638.38685,592.11791 645.37236,587.39801 645.37236,572.86061 C 645.37236,553.79204 623.94384,534.81787 584.57956,534.81787 C 546.72565,534.81787 525.10833,552.56488 500.75345,577.86372 C 488.00962,591.07956 474.32179,607.50494 461.86116,620.34316 C 452.51568,629.87745 442.50941,638.65651 432.12555,646.49163 C 474.79379,655.08189 519.9164,665.08819 561.64066,665.08819 C 604.5921,665.08819 624.13264,653.94913 634.13891,644.69806 L 636.87647,648.66281 C 626.11501,670.75212 593.54744,689.53749 551.91758,689.53749 C 498.58228,689.53749 451.0053,674.52807 409.28105,661.97305 C 380.11183,679.43678 349.90423,689.53749 324.51096,689.53749 M 103.52345,817.25901 L 73.787837,817.25901 L 73.787837,852.37535 L 57.928845,852.37535 L 57.928845,771.28675 L 73.787837,771.28675 L 73.787837,804.70392 L 103.52345,804.70392 L 103.52345,771.28675 L 119.38244,771.28675 L 119.38244,852.37535 L 103.52345,852.37535 L 103.52345,817.25901 z M 25.550068,852.37535 L 9.7854737,852.37535 L 9.7854737,784.9746 L -10.699056,784.9746 L -10.699056,771.28675 L 45.940201,771.28675 L 45.940201,784.9746 L 25.550068,784.9746 L 25.550068,852.37535 z M 140.81096,771.28675 L 189.14313,771.28675 L 189.14313,783.93625 L 156.48116,783.93625 L 156.48116,804.04318 L 184.51759,804.04318 L 184.51759,816.5982 L 156.48116,816.5982 L 156.48116,839.63153 L 189.80392,839.63153 L 189.80392,852.37535 L 140.81096,852.37535 L 140.81096,771.28675 z M 391.43968,852.37535 L 391.43968,794.6977 C 391.43968,782.99222 387.28614,769.49318 362.74246,769.68198 C 349.71543,769.77639 338.76517,772.51399 331.49647,776.00673 L 331.49647,852.37535 L 347.26106,852.37535 L 347.26106,785.54102 C 350.75381,784.03065 356.13454,782.80342 361.70407,782.89782 C 374.35351,783.18103 375.58069,789.78891 375.58069,797.43522 L 375.58069,852.37535 L 391.43968,852.37535 z M 920.92233,821.60131 L 920.92233,852.37535 L 905.25218,852.37535 L 905.25218,775.91233 L 906.29053,775.34591 C 913.08722,771.85317 922.81031,769.68198 931.68378,769.68198 C 952.26272,769.68198 964.62901,779.59388 964.62901,796.01926 C 964.62901,811.87829 951.41317,822.16772 929.70148,822.16772 C 926.68067,822.16772 923.47113,821.88452 920.92233,821.60131 M 920.92233,784.03065 L 920.92233,809.3295 C 923.28232,809.6127 926.39746,809.80151 929.13506,809.80151 C 942.91724,809.80151 948.76997,804.04318 948.76997,796.01926 C 948.76997,787.24019 943.29485,782.23708 931.68378,782.23708 C 928.00223,782.23708 923.65993,783.08663 920.92233,784.03065 M 823.69163,825.47166 L 823.69163,771.28675 L 839.55062,771.28675 L 839.55062,825.66047 C 839.55062,834.72274 845.40334,840.19787 854.56002,840.19787 C 863.7167,840.19787 869.66383,834.72274 869.66383,825.66047 L 869.66383,771.28675 L 885.52279,771.28675 L 885.52279,825.47166 C 885.52279,842.74666 872.96777,853.98012 854.56002,853.98012 C 836.15227,853.98012 823.69163,842.74666 823.69163,825.47166 M 579.10442,811.87829 C 579.10442,787.05139 593.64184,769.68198 619.03511,769.68198 C 627.90859,769.68198 636.21568,771.75877 641.97401,775.44032 L 643.48439,776.38434 L 638.29246,787.99534 L 636.31008,786.76818 C 632.53413,784.40819 626.58701,782.52021 619.88469,782.52021 C 603.83691,782.52021 594.96342,793.84807 594.96342,811.68949 C 594.96342,829.53083 603.9313,841.2363 618.37431,841.2363 C 623.09425,841.2363 626.7758,840.48108 629.23017,839.53713 L 629.23017,818.29737 L 614.22077,818.29737 L 614.22077,806.21436 L 644.33397,806.21436 L 644.33397,847.65537 L 643.38999,848.22179 C 637.44286,851.90334 628.56938,853.98012 618.75191,853.98012 C 593.64184,853.98012 579.10442,836.98833 579.10442,811.87829 M 685.01984,812.35023 C 695.8757,812.35023 706.44836,807.53592 706.44836,796.39687 C 706.44836,788.84496 701.82282,781.76507 690.68377,781.76507 C 686.43582,781.76507 682.28228,782.42581 678.88392,783.74745 L 678.88392,852.37535 L 663.40252,852.37535 L 663.40252,775.91233 L 664.44091,775.34591 C 670.95442,771.85317 681.81028,769.68198 690.68377,769.68198 C 711.1683,769.68198 722.02416,779.97149 722.02416,796.01926 C 722.02416,808.85748 711.82909,816.5982 705.31557,818.67498 L 725.13931,852.37535 L 706.44836,852.37535 L 685.01984,812.35023 z M 736.08957,811.68949 C 736.08957,787.80661 748.26701,768.83244 771.5835,768.83244 C 794.9,768.83244 807.07745,787.80661 807.07745,811.68949 C 807.07745,835.66677 794.9,854.82967 771.5835,854.82967 C 748.26701,854.82967 736.08957,835.66677 736.08957,811.68949 M 751.94857,811.59508 C 751.94857,829.62523 759.02847,840.95309 771.5835,840.95309 C 784.23294,840.95309 791.21845,829.62523 791.21845,811.59508 C 791.21845,793.56486 784.23294,782.52021 771.5835,782.52021 C 759.02847,782.52021 751.94857,793.56486 751.94857,811.59508 M 492.06877,771.28675 L 540.40093,771.28675 L 540.40093,783.93625 L 507.83336,783.93625 L 507.83336,804.04318 L 535.86979,804.04318 L 535.86979,816.5982 L 507.83336,816.5982 L 507.83336,839.63153 L 541.15612,839.63153 L 541.15612,852.37535 L 492.06877,852.37535 L 492.06877,771.28675 z M 294.49215,771.28675 L 310.35114,771.28675 L 310.35114,852.37535 L 294.49215,852.37535 L 294.49215,771.28675 z M 237.00331,771.28675 L 252.8623,771.28675 L 252.8623,838.6875 L 281.84271,838.6875 L 281.84271,852.37535 L 237.00331,852.37535 L 237.00331,771.28675 z M 427.12241,784.40819 L 427.12241,839.15952 C 429.67118,840.19787 433.25833,840.85869 437.12868,840.85869 C 450.9109,840.85869 459.5012,831.23 459.5012,811.68949 C 459.5012,792.2433 450.8165,782.61461 437.12868,782.61461 C 433.25833,782.61461 429.76558,783.36983 427.12241,784.40819 M 412.20741,848.12739 L 411.07462,847.56097 L 411.07462,775.91233 L 412.20741,775.34591 C 419.19292,771.75877 428.1608,769.68198 437.03429,769.68198 C 461.20037,769.68198 475.36019,786.10736 475.36019,811.68949 C 475.36019,837.36594 461.20037,853.79132 437.03429,853.79132 C 428.1608,853.79132 419.19292,851.71453 412.20741,848.12739"
       style="fill:#003867;fill-rule:evenodd;stroke:none"
       id="path26659" />
  </g>
</svg>
