<?xml version="1.0" encoding="UTF-8"?> <svg xmlns="http://www.w3.org/2000/svg" width="80" height="24"><path d="M48.102 20.104c-4.029.013-6.892-2.968-7.272-7.338 0 0-.05-.867-.022-1.713.028-.88.164-1.554.164-1.554.676-3.867 3.005-5.898 6.621-5.91 3.799-.012 6.188 2.327 6.474 5.87l-7.48.023a3.258 3.258 0 00-3.241 3.276l15.125-.047c.045-.415.088-1.151.086-1.75C58.539 5.072 54.724-.022 47.582.001 40.485.023 36.473 5.372 36.494 11.86c.02 6.441 4.477 12.086 11.62 12.064 5.677-.018 9.832-3.16 10.642-7.947l-4.441.014c-.633 2.624-2.825 4.103-6.213 4.113zM75.43.326l-6.023 17.56-5.251-15.12A3.553 3.553 0 0060.79.372l-2.3.007 8.526 23.116 4.648-.014L80 .31l-4.57.015zM23.7 20.181c-4.029.013-6.891-2.97-7.271-7.338 0 0-.05-.868-.023-1.713.028-.88.165-1.554.165-1.554.675-3.867 3.004-5.9 6.62-5.91 3.8-.012 6.188 2.327 6.474 5.868l-7.48.024a3.259 3.259 0 00-3.24 3.277l15.125-.047a18.53 18.53 0 00.086-1.75C34.138 5.149 30.323.054 23.18.077c-7.096.022-11.108 5.372-11.088 11.859.02 6.441 4.479 12.087 11.62 12.064 5.678-.018 9.834-3.16 10.643-7.947l-4.44.014c-.634 2.625-2.826 4.104-6.215 4.114zM13.23.982l-.001-.506-2.653.009c-3.251.01-5.077 1.396-6.121 4.482L4.441.503.001.518l.072 23.188 4.44-.013-.033-10.49c-.016-5.062 1.316-7.812 5.56-8.852 1.792-.44 3.196-1.513 3.19-3.369z" fill="#FFF"></path></svg> 