<?xml version="1.0" encoding="UTF-8"?>
<svg width="324px" height="63px" viewBox="0 0 324 63" version="1.1" xmlns="http://www.w3.org/2000/svg" xmlns:xlink="http://www.w3.org/1999/xlink">
    <!-- Generator: Sketch 47.1 (45422) - http://www.bohemiancoding.com/sketch -->
    <title>Logo</title>
    <desc>Created with Sketch.</desc>
    <defs></defs>
    <g id="Page-1" stroke="none" stroke-width="1" fill="none" fill-rule="evenodd">
        <g id="Logo" fill-rule="nonzero">
            <g id="XMLID_123_" transform="translate(82.000000, 15.000000)">
                <polygon id="XMLID_124_" fill="#E53323" points="0.13895 0.88789 5.17062 0.88789 5.9302 27.51932 6.12046 27.51932 16.23286 0.88789 22.02412 0.88789 23.21031 27.51932 23.40057 27.51932 33.13244 0.88789 38.21316 0.88789 25.86959 33.54841 19.12849 33.54841 18.03595 7.4848 17.84567 7.4848 8.06625 33.54841 1.27758 33.54841"></polygon>
                <polygon id="XMLID_126_" fill="#E53323" points="40.69406 0.88789 60.34805 0.88789 59.63603 5.30268 45.06277 5.30268 43.44848 14.79819 55.12611 14.79819 54.46167 19.07028 42.73647 19.07028 41.02704 29.13362 55.93326 29.13362 55.22125 33.54841 35.18821 33.54841"></polygon>
                <path d="M64.62906,0.88789 L74.55119,0.88789 C81.24472,0.88789 84.75871,3.78351 84.75871,9.5272 C84.75871,14.65549 81.53012,18.78488 76.30818,20.30404 L81.67282,33.54841 L76.26062,33.54841 L71.41772,20.96997 L66.33848,20.96997 L64.25001,33.54841 L59.12321,33.54841 L64.62906,0.88789 Z M68.99777,5.20754 L67.0505,16.69491 L72.12974,16.69491 C77.0202,16.69491 79.44164,13.70416 79.44164,9.90773 C79.44164,6.91697 77.7322,5.20754 73.98186,5.20754 L68.99777,5.20754 L68.99777,5.20754 Z" id="XMLID_128_" fill="#E53323"></path>
                <polygon id="XMLID_131_" fill="#E53323" points="90.60645 0.88789 95.73475 0.88789 93.12304 16.36492 107.88805 0.88789 113.63173 0.88789 99.95926 15.17575 108.55249 33.54841 103.04515 33.54841 96.39918 18.88001 91.88926 23.5802 90.22739 33.54841 85.10059 33.54841"></polygon>
                <polygon id="XMLID_133_" fill="#E53323" points="116.67749 0.88789 136.33148 0.88789 135.61946 5.30268 121.0462 5.30268 119.4319 14.79819 131.10954 14.79819 130.4451 19.07028 118.7199 19.07028 117.01046 29.13362 131.91669 29.13362 131.20468 33.54841 111.17164 33.54841"></polygon>
                <path d="M140.61249,0.88789 L150.53461,0.88789 C157.22815,0.88789 160.74213,3.78351 160.74213,9.5272 C160.74213,14.65549 157.51355,18.78488 152.2916,20.30404 L157.65625,33.54841 L152.24405,33.54841 L147.40115,20.96997 L142.32193,20.96997 L140.23343,33.54841 L135.10663,33.54841 L140.61249,0.88789 Z M144.9812,5.20754 L143.03393,16.69491 L148.11315,16.69491 C153.00362,16.69491 155.42507,13.70416 155.42507,9.90773 C155.42507,6.91697 153.71563,5.20754 149.96529,5.20754 L144.9812,5.20754 L144.9812,5.20754 Z" id="XMLID_135_" fill="#E53323"></path>
                <path d="M179.69452,0.88789 L184.91644,0.88789 L189.61664,33.54841 L185.39063,33.54841 L184.25202,24.7664 L172.43018,24.7664 L168.34836,33.54841 L164.16992,33.54841 L179.69452,0.88789 Z M181.54517,5.35024 L174.13962,21.1097 L183.77634,21.1097 L181.73545,5.35024 L181.54517,5.35024 Z" id="XMLID_138_" fill="#868686"></path>
                <path d="M197.79068,0.88789 L206.66785,0.88789 C213.55164,0.88789 216.68509,4.87458 216.68509,10.05043 C216.68509,17.26572 211.46317,22.15617 203.44074,22.15617 L198.31244,22.15617 L196.41422,33.54841 L192.28336,33.54841 L197.79068,0.88789 Z M201.30319,4.58917 L198.93081,18.45191 L203.67706,18.45191 C208.89901,18.45191 212.46057,15.36601 212.46057,10.28826 C212.46057,7.05967 210.5133,4.58917 206.24121,4.58917 L201.30319,4.58917 Z" id="XMLID_141_" fill="#868686"></path>
                <path d="M222.15378,0.88789 L231.03095,0.88789 C237.91474,0.88789 241.04819,4.87458 241.04819,10.05043 C241.04819,17.26572 235.82627,22.15617 227.80384,22.15617 L222.67554,22.15617 L220.77732,33.54841 L216.64646,33.54841 L222.15378,0.88789 Z M225.66629,4.58917 L223.29391,18.45191 L228.04016,18.45191 C233.26211,18.45191 236.82367,15.36601 236.82367,10.28826 C236.82367,7.05967 234.8764,4.58917 230.60431,4.58917 L225.66629,4.58917 Z" id="XMLID_144_" fill="#868686"></path>
            </g>
            <g id="XMLID_17_">
                <g id="Group" fill="#E53323">
                    <polygon id="Shape" points="30.9995 41.37627 31.18983 41.30614 28.36966 16.12984 36.50652 13.13517 51.05894 33.99381 51.24928 33.92368 46.46891 4.17739 21.91489 0.10165 0.84178 25.73403 17.96266 19.96005"></polygon>
                    <polygon id="Shape" points="57.06684 12.01126 60.4081 41.29574 49.81091 45.19593 36.75583 26.3646 36.56731 26.43414 39.02506 49.1655 28.42622 53.06629 13.27262 30.53718 3.93494 33.9739 12.50345 56.79998 45.23837 62.23355 66.31133 36.60117"></polygon>
                </g>
                <polygon id="XMLID_22_" fill="#FFFFFF" points="28.42628 53.06638 39.02512 49.16554 36.56726 26.43421 36.75586 26.36472 49.81089 45.19595 60.40805 41.29585 57.06686 12.01126 54.65136 5.5355 46.46895 4.17743 46.46895 4.17743 51.24922 33.92374 51.05896 33.99379 36.5065 13.13522 28.36961 16.12988 31.1898 41.30625 30.99953 41.3763 17.96272 19.96011 0.84185 25.73409 3.9348 33.97391 3.93499 33.97391 13.27256 30.53721"></polygon>
            </g>
        </g>
    </g>
</svg>